<?xml version="1.0" encoding="UTF-8"?>
<!-- Creator: CorelDRAW 2019 (64-Bit) -->
<svg xmlns="http://www.w3.org/2000/svg" xmlns:xlink="http://www.w3.org/1999/xlink" xml:space="preserve" width="48.795mm" height="8.316mm" version="1.1" style="shape-rendering:geometricPrecision; text-rendering:geometricPrecision; image-rendering:optimizeQuality; fill-rule:evenodd; clip-rule:evenodd" viewBox="0 0 4879.5 831.6">
 <defs>
  <style type="text/css">
   <![CDATA[
    .fil3 {fill:#2B2A29;fill-rule:nonzero}
    .fil0 {fill:#E31E24;fill-rule:nonzero}
    .fil1 {fill:#FAC311;fill-rule:nonzero}
    .fil2 {fill:#76AC33;fill-rule:nonzero}
   ]]>
  </style>
 </defs>
 <g id="Vrstva_x0020_1">
  <metadata id="CorelCorpID_0Corel-Layer"></metadata>
  <g id="_2075000073424">
   <path class="fil0" d="M74.34 477.32c-108.64,-107.49 -108.64,-281.7 0,-389.18 108.66,-107.44 284.8,-107.44 393.48,0l-393.48 389.18z"></path>
   <path class="fil1" d="M467.86 88.22c108.61,-107.39 284.68,-107.39 393.28,0 108.58,107.4 108.58,281.53 0,388.88l-393.28 -388.88z"></path>
   <path class="fil2" d="M74.3 477.22l0 361.89 187.3 0c0,-112.57 92.24,-203.82 206.05,-203.82 113.8,0 206.05,91.25 206.05,203.82l187.3 0 0 -361.89 -786.7 0z"></path>
   <path class="fil3" d="M1261.7 797.53c-11.04,0 -22.28,-1.43 -33.71,-4.28 -11.42,-2.86 -21.52,-7.34 -30.28,-13.43 -4.57,-4.19 -6.85,-8.76 -6.85,-13.71 0,-4.96 2,-9.34 5.99,-13.14 4.01,-3.82 8.48,-5.72 13.43,-5.72 2.67,0 5.34,0.76 8,2.29 6.86,4.19 14.76,7.52 23.72,10 8.94,2.47 17.42,3.71 25.42,3.71 7.62,0 14.19,-1.33 19.71,-4 5.52,-2.67 8.29,-7.05 8.29,-13.14 0,-6.09 -2.67,-10.66 -8.01,-13.71 -5.33,-3.05 -14.46,-5.33 -27.42,-6.86 -5.33,-0.76 -11.71,-1.71 -19.14,-2.85 -7.42,-1.15 -14.76,-3.24 -21.99,-6.29 -7.25,-3.05 -13.34,-7.62 -18.29,-13.71 -4.95,-6.1 -7.43,-14.29 -7.43,-24.57 0,-16.76 6.19,-30.09 18.57,-39.99 12.38,-9.91 29.04,-14.86 49.99,-14.86 12.2,0 23.72,1.52 34.57,4.57 10.86,3.05 18.95,6.86 24.29,11.43 4.19,3.43 6.28,7.43 6.28,12 0,4.95 -1.71,9.33 -5.14,13.14 -3.43,3.81 -7.62,5.71 -12.57,5.71 -2.67,0 -5.14,-0.57 -7.43,-1.71 -6.09,-3.43 -12.86,-6 -20.29,-7.72 -7.42,-1.71 -14.57,-2.57 -21.42,-2.57 -8,0 -14.76,1.24 -20.28,3.71 -5.52,2.48 -8.29,6.39 -8.29,11.72 0,3.81 1.62,7.14 4.86,9.99 3.24,2.87 11.72,5.24 25.42,7.15 6.48,0.76 13.81,1.9 22,3.43 8.2,1.52 16.1,3.9 23.72,7.14 7.61,3.24 13.9,8.29 18.85,15.14 4.95,6.85 7.43,16.19 7.43,28 0,12.18 -3.43,22.19 -10.29,29.99 -6.86,7.81 -15.71,13.62 -26.57,17.43 -10.85,3.8 -22.57,5.71 -35.14,5.71zm170.84 0c-14.86,0 -27.05,-4.57 -36.57,-13.71 -9.52,-9.14 -14.29,-22.86 -14.29,-41.14l0 -72.56c0,-3.81 -1.9,-5.71 -5.7,-5.71l-10.29 0c-4.95,0 -9.14,-1.62 -12.57,-4.86 -3.43,-3.24 -5.14,-7.33 -5.14,-12.29 0,-5.33 1.71,-9.71 5.14,-13.14 3.43,-3.42 7.62,-5.14 12.57,-5.14l10.29 0c3.8,0 5.7,-1.9 5.7,-5.71l0 -47.99c0,-5.33 1.82,-9.62 5.44,-12.86 3.61,-3.24 8.09,-4.86 13.42,-4.86 5.72,0 10.38,1.62 14,4.86 3.62,3.24 5.43,7.53 5.43,12.86l0 47.99c0,3.81 1.9,5.71 5.71,5.71l30.85 0c4.58,0 8.57,1.72 12,5.14 3.43,3.43 5.14,7.81 5.14,13.14 0,4.96 -1.61,9.05 -4.85,12.29 -3.24,3.24 -7.52,4.86 -12.85,4.86l-30.29 0c-3.81,0 -5.71,1.9 -5.71,5.71l0 67.42c0,16 6.47,24 19.42,24 3.81,0 7.81,-0.58 12,-1.72 4.19,-1.14 7.05,-1.71 8.57,-1.71 5.33,0 9.43,1.71 12.29,5.14 2.86,3.43 4.28,7.43 4.28,12 0,3.43 -0.95,6.76 -2.86,10 -1.9,3.23 -4.95,5.62 -9.13,7.14 -4.19,1.52 -9.43,2.76 -15.72,3.71 -6.28,0.96 -11.71,1.43 -16.28,1.43zm111.41 -90.27l0 72.56c0,5.72 -2,10.1 -6,13.14 -4,3.05 -8.47,4.57 -13.42,4.57 -4.96,0 -9.43,-1.52 -13.43,-4.57 -4,-3.04 -6,-7.42 -6,-13.14l0 -134.27c0,-6.47 2,-11.33 6,-14.57 4,-3.23 8.47,-4.85 13.43,-4.85 4.95,0 9.42,1.62 13.42,4.85 4,3.24 6,8.1 6,14.57l0 2.29c5.34,-7.24 12.29,-13.14 20.86,-17.72 8.57,-4.57 17.61,-6.85 27.13,-6.85 4.58,0 9.15,0.57 13.72,1.71 4.57,1.15 7.99,3.43 10.28,6.86 2.29,3.43 3.43,7.24 3.43,11.43 0,4.95 -1.62,9.43 -4.86,13.42 -3.23,4 -7.9,6 -14,6 -2.66,0 -5.42,-0.38 -8.28,-1.14 -2.86,-0.76 -6.38,-1.14 -10.57,-1.14 -11.04,0 -20.09,4.18 -27.14,12.57 -7.04,8.38 -10.57,19.8 -10.57,34.28zm-28.57 -169.69c3.81,0 7.05,1.14 9.72,3.42l37.14 27.43 36.56 -27.43c3.05,-2.28 6.29,-3.42 9.72,-3.42 9.14,0 13.7,4 13.7,12 0,3.8 -1.51,7.61 -4.56,11.42l-41.71 37.14c-3.81,3.43 -8.29,5.14 -13.43,5.14 -5.14,0 -9.81,-1.71 -14,-5.14l-41.7 -37.14c-3.05,-3.81 -4.58,-7.42 -4.58,-10.85 0,-8.38 4.38,-12.57 13.14,-12.57zm203.41 259.96c-28.57,0 -50.85,-8.19 -66.85,-24.57 -16,-16.38 -24,-38.47 -24,-66.27 0,-24.38 8.1,-44.38 24.28,-59.99 16.19,-15.63 37.04,-23.43 62.57,-23.43 24.76,0 44.57,7.14 59.42,21.42 14.85,14.29 22.28,31.9 22.28,52.86 0,8.37 -2.19,14.66 -6.57,18.85 -4.38,4.19 -10,6.29 -16.85,6.29l-99.42 0c-3.81,0 -5.14,2.09 -4,6.28 3.05,10.66 9.24,18.95 18.57,24.85 9.33,5.91 19.9,8.86 31.71,8.86 8.76,0 17.24,-1.14 25.43,-3.43 8.18,-2.28 15.32,-5.71 21.42,-10.28 1.91,-1.52 4.38,-2.29 7.43,-2.29 4.19,0 8,1.81 11.42,5.43 3.43,3.62 5.15,7.9 5.15,12.86 0,2.28 -0.38,4.56 -1.14,6.85 -0.77,2.28 -2.48,4.57 -5.15,6.86 -9.9,7.23 -20.47,12.19 -31.71,14.85 -11.23,2.67 -22.57,4 -33.99,4zm33.14 -104.56c2.28,0 3.42,-1.14 3.42,-3.43 0,-8.76 -3.9,-16.37 -11.71,-22.85 -7.81,-6.48 -17.43,-9.71 -28.85,-9.71 -9.9,0 -19.33,2.67 -28.29,8 -8.94,5.33 -14.37,12.38 -16.28,21.14 0,0 0,0.19 0,0.57 -0.38,1.52 -0.47,2.85 -0.28,4 0.19,1.14 1.81,1.72 4.86,1.72l77.13 0.56zm158.26 104.56c-16.38,0 -31.04,-3.81 -43.99,-11.43 -12.95,-7.61 -23.05,-18.18 -30.28,-31.7 -7.24,-13.53 -10.86,-28.67 -10.86,-45.43 0,-16.38 3.62,-31.04 10.86,-43.99 7.23,-12.95 17.33,-23.14 30.28,-30.57 12.95,-7.43 27.61,-11.14 43.99,-11.14 10.67,0 20.19,1.71 28.57,5.14 8.38,3.43 15.62,8.19 21.71,14.29l0 -80c0,-6.47 2,-11.33 6,-14.57 4,-3.23 8.48,-4.85 13.43,-4.85 4.95,0 9.43,1.62 13.43,4.85 3.99,3.24 5.99,8.1 5.99,14.57l0 217.12c0,5.72 -2,10.1 -5.99,13.14 -4,3.05 -8.48,4.57 -13.43,4.57 -4.95,0 -9.43,-1.52 -13.43,-4.57 -4,-3.04 -6,-7.42 -6,-13.14l0 -2.29c-6.09,6.1 -13.33,10.95 -21.71,14.57 -8.38,3.63 -17.9,5.43 -28.57,5.43zm3.43 -35.42c14.48,0 25.9,-4.86 34.28,-14.57 8.39,-9.72 12.57,-22.57 12.57,-38.57 0,-15.24 -4.18,-27.42 -12.57,-36.57 -8.38,-9.13 -19.8,-13.7 -34.28,-13.7 -14.85,0 -26.85,4.57 -36,13.7 -9.13,9.15 -13.71,21.33 -13.71,36.57 0,16 4.58,28.85 13.71,38.57 9.15,9.71 21.15,14.57 36,14.57zm148.56 35.42c-4.96,0 -9.43,-1.52 -13.43,-4.57 -4,-3.04 -6,-7.42 -6,-13.14l0 -137.12c0,-6.48 2,-11.34 6,-14.57 4,-3.24 8.47,-4.86 13.43,-4.86 4.94,0 9.43,1.62 13.42,4.86 4,3.23 6,8.09 6,14.57l0 137.12c0,5.72 -2,10.1 -6,13.14 -3.99,3.05 -8.48,4.57 -13.42,4.57zm0.56 -205.68c-7.23,0 -13.42,-2.39 -18.56,-7.14 -5.14,-4.77 -7.71,-10.58 -7.71,-17.44 0,-6.47 2.57,-12.09 7.71,-16.85 5.14,-4.76 11.33,-7.14 18.56,-7.14 6.86,0 12.77,2.38 17.72,7.14 4.95,4.76 7.43,10.38 7.43,16.85 0,6.86 -2.48,12.67 -7.43,17.44 -4.95,4.75 -10.86,7.14 -17.72,7.14zm124.56 205.68c-11.04,0 -22.28,-1.43 -33.71,-4.28 -11.43,-2.86 -21.52,-7.34 -30.28,-13.43 -4.57,-4.19 -6.86,-8.76 -6.86,-13.71 0,-4.96 2,-9.34 6,-13.14 4,-3.82 8.48,-5.72 13.43,-5.72 2.66,0 5.33,0.76 8,2.29 6.85,4.19 14.75,7.52 23.71,10 8.95,2.47 17.42,3.71 25.42,3.71 7.62,0 14.19,-1.33 19.71,-4 5.52,-2.67 8.29,-7.05 8.29,-13.14 0,-6.09 -2.67,-10.66 -8,-13.71 -5.33,-3.05 -14.47,-5.33 -27.43,-6.86 -5.33,-0.76 -11.71,-1.71 -19.14,-2.85 -7.42,-1.15 -14.76,-3.24 -21.99,-6.29 -7.24,-3.05 -13.34,-7.62 -18.28,-13.71 -4.96,-6.1 -7.43,-14.29 -7.43,-24.57 0,-16.76 6.19,-30.09 18.56,-39.99 12.39,-9.91 29.05,-14.86 50,-14.86 12.19,0 23.71,1.52 34.57,4.57 10.85,3.05 18.95,6.86 24.28,11.43 4.19,3.43 6.28,7.43 6.28,12 0,4.95 -1.71,9.33 -5.14,13.14 -3.43,3.81 -7.62,5.71 -12.57,5.71 -2.67,0 -5.14,-0.57 -7.43,-1.71 -6.09,-3.43 -12.85,-6 -20.28,-7.72 -7.42,-1.71 -14.57,-2.57 -21.43,-2.57 -8,0 -14.76,1.24 -20.28,3.71 -5.52,2.48 -8.28,6.39 -8.28,11.72 0,3.81 1.61,7.14 4.85,9.99 3.24,2.87 11.72,5.24 25.43,7.15 6.47,0.76 13.8,1.9 22,3.43 8.19,1.52 16.09,3.9 23.71,7.14 7.61,3.24 13.9,8.29 18.85,15.14 4.95,6.85 7.43,16.19 7.43,28 0,12.18 -3.43,22.19 -10.29,29.99 -6.85,7.81 -15.71,13.62 -26.56,17.43 -10.86,3.8 -22.57,5.71 -35.14,5.71zm125.69 0c-4.95,0 -9.42,-1.52 -13.42,-4.57 -4,-3.04 -6,-7.42 -6,-13.14l0 -217.12c0,-6.47 2,-11.33 6,-14.57 4,-3.23 8.47,-4.85 13.42,-4.85 4.96,0 9.43,1.62 13.43,4.85 4,3.24 6,8.1 6,14.57l0 111.42c0,3.81 0.57,5.71 1.72,5.71 1.14,0 2.66,-0.76 4.57,-2.28l70.84 -50.86c4.19,-2.28 8,-3.42 11.43,-3.42 5.34,0 9.72,1.81 13.14,5.43 3.43,3.62 5.15,7.52 5.15,11.71 0,6.48 -3.05,11.62 -9.15,15.42l-58.28 36.58c-3.43,2.28 -5.14,4.56 -5.14,6.85 0,2.28 1.34,4.76 4,7.43l62.28 58.85c4.19,4.95 6.29,9.52 6.29,13.71 0,4.95 -1.91,9.23 -5.72,12.85 -3.8,3.63 -8.19,5.43 -13.14,5.43 -4.95,0 -9.52,-2.09 -13.71,-6.29l-66.85 -66.27c-2.67,-2.67 -4.38,-4 -5.15,-4 -1.52,0 -2.28,2.28 -2.28,6.86l0 51.99c0,5.72 -2,10.1 -6,13.14 -4,3.05 -8.47,4.57 -13.43,4.57zm231.97 0c-16.75,0 -31.9,-3.81 -45.42,-11.43 -13.52,-7.61 -24.09,-18.18 -31.71,-31.7 -7.62,-13.53 -11.43,-28.67 -11.43,-45.43 0,-16.38 3.81,-31.04 11.43,-43.99 7.62,-12.95 18.19,-23.14 31.71,-30.57 13.52,-7.43 28.67,-11.14 45.42,-11.14 16.76,0 31.81,3.71 45.14,11.14 13.33,7.43 23.9,17.62 31.71,30.57 7.81,12.95 11.72,27.61 11.72,43.99 0,16.76 -3.91,31.9 -11.72,45.43 -7.81,13.52 -18.38,24.09 -31.71,31.7 -13.33,7.62 -28.38,11.43 -45.14,11.43zm0 -35.42c14.86,0 26.86,-4.86 36,-14.57 9.14,-9.72 13.71,-22.57 13.71,-38.57 0,-15.24 -4.57,-27.42 -13.71,-36.57 -9.14,-9.13 -21.14,-13.7 -36,-13.7 -15.23,0 -27.33,4.57 -36.28,13.7 -8.95,9.15 -13.43,21.33 -13.43,36.57 0,16 4.48,28.85 13.43,38.57 8.95,9.71 21.05,14.57 36.28,14.57zm304.54 35.42c-5.72,0 -11.05,-1.24 -16,-3.71 -4.95,-2.48 -8.57,-6.19 -10.85,-11.15l-56.57 -133.12c-0.76,-3.05 -1.14,-5.33 -1.14,-6.85 0,-6.1 2.09,-10.86 6.28,-14.29 4.19,-3.43 8.76,-5.14 13.72,-5.14 3.42,0 6.76,0.95 9.99,2.86 3.24,1.9 5.62,4.94 7.15,9.14l39.99 103.41c1.9,3.81 4.38,5.72 7.43,5.72 3.81,0 6.28,-1.91 7.42,-5.72l39.43 -103.41c1.52,-4.2 3.91,-7.24 7.14,-9.14 3.24,-1.91 6.57,-2.86 10,-2.86 5.33,0 10,1.71 14,5.14 4,3.43 6,8 6,13.71 0,1.91 -0.38,4.38 -1.14,7.43l-56 133.12c-2.29,4.96 -5.9,8.67 -10.86,11.15 -4.94,2.47 -10.28,3.71 -15.99,3.71zm183.97 0c-16.75,0 -31.9,-3.81 -45.42,-11.43 -13.52,-7.61 -24.09,-18.18 -31.71,-31.7 -7.62,-13.53 -11.43,-28.67 -11.43,-45.43 0,-16.38 3.81,-31.04 11.43,-43.99 7.62,-12.95 18.19,-23.14 31.71,-30.57 13.52,-7.43 28.67,-11.14 45.42,-11.14 16.76,0 31.81,3.71 45.14,11.14 13.33,7.43 23.9,17.62 31.71,30.57 7.81,12.95 11.71,27.61 11.71,43.99 0,16.76 -3.9,31.9 -11.71,45.43 -7.81,13.52 -18.38,24.09 -31.71,31.7 -13.33,7.62 -28.38,11.43 -45.14,11.43zm0 -35.42c14.86,0 26.86,-4.86 36,-14.57 9.14,-9.72 13.71,-22.57 13.71,-38.57 0,-15.24 -4.57,-27.42 -13.71,-36.57 -9.14,-9.13 -21.14,-13.7 -36,-13.7 -15.24,0 -27.33,4.57 -36.28,13.7 -8.95,9.15 -13.43,21.33 -13.43,36.57 0,16 4.48,28.85 13.43,38.57 8.95,9.71 21.04,14.57 36.28,14.57zm142.27 35.42c-4.95,0 -9.43,-1.52 -13.43,-4.57 -4,-3.04 -5.99,-7.42 -5.99,-13.14l0 -217.12c0,-6.47 1.99,-11.33 5.99,-14.57 4,-3.23 8.48,-4.85 13.43,-4.85 4.95,0 9.43,1.62 13.43,4.85 3.99,3.24 6,8.1 6,14.57l0 217.12c0,5.72 -2.01,10.1 -6,13.14 -4,3.05 -8.48,4.57 -13.43,4.57zm209.68 0c-4.95,0 -9.42,-1.52 -13.43,-4.57 -3.99,-3.04 -6,-7.42 -6,-13.14l0 -71.99c0,-16.76 -3.71,-29.14 -11.14,-37.14 -7.42,-8 -17.23,-11.99 -29.42,-11.99 -15.62,0 -26.95,5.04 -33.99,15.13 -7.05,10.1 -10.57,21.24 -10.57,33.43l0 72.56c0,5.72 -2.01,10.1 -6,13.14 -4,3.05 -8.48,4.57 -13.43,4.57 -4.95,0 -9.43,-1.52 -13.43,-4.57 -4,-3.04 -5.99,-7.42 -5.99,-13.14l0 -134.27c0,-6.47 1.99,-11.33 5.99,-14.57 4,-3.23 8.48,-4.85 13.43,-4.85 4.95,0 9.43,1.62 13.43,4.85 3.99,3.24 6,8.1 6,14.57 6.47,-6.47 14.85,-11.8 25.14,-15.99 10.28,-4.19 19.99,-6.29 29.14,-6.29 21.32,0 38.28,6.85 50.85,20.57 12.56,13.71 18.85,33.9 18.85,60.56l0 75.42c0,5.72 -2.1,10.1 -6.29,13.14 -4.19,3.05 -8.57,4.57 -13.14,4.57zm141.7 0c-28.56,0 -50.85,-8.19 -66.85,-24.57 -15.99,-16.38 -24,-38.47 -24,-66.27 0,-24.38 8.1,-44.38 24.29,-59.99 16.19,-15.63 37.04,-23.43 62.56,-23.43 24.76,0 44.57,7.14 59.42,21.42 14.86,14.29 22.29,31.9 22.29,52.86 0,8.37 -2.2,14.66 -6.58,18.85 -4.38,4.19 -9.99,6.29 -16.85,6.29l-99.42 0c-3.8,0 -5.14,2.09 -3.99,6.28 3.04,10.66 9.23,18.95 18.56,24.85 9.34,5.91 19.9,8.86 31.71,8.86 8.76,0 17.24,-1.14 25.43,-3.43 8.19,-2.28 15.33,-5.71 21.42,-10.28 1.91,-1.52 4.38,-2.29 7.43,-2.29 4.19,0 8,1.81 11.43,5.43 3.43,3.62 5.14,7.9 5.14,12.86 0,2.28 -0.38,4.56 -1.14,6.85 -0.76,2.28 -2.48,4.57 -5.14,6.86 -9.91,7.23 -20.48,12.19 -31.71,14.85 -11.24,2.67 -22.57,4 -34,4zm33.14 -104.56c2.29,0 3.43,-1.14 3.43,-3.43 0,-8.76 -3.9,-16.37 -11.71,-22.85 -7.82,-6.48 -17.43,-9.71 -28.86,-9.71 -9.9,0 -19.33,2.67 -28.28,8 -8.95,5.33 -14.38,12.38 -16.29,21.14 0,0 0,0.19 0,0.57 -0.37,1.52 -0.47,2.85 -0.28,4 0.19,1.14 1.81,1.72 4.86,1.72l77.13 0.56zm-67.42 -116.55l52.57 -41.71c1.52,-1.15 3.52,-2.38 6,-3.72 2.47,-1.33 5.04,-1.99 7.71,-1.99 4.57,0 8.57,1.71 12,5.14 3.43,3.43 5.14,7.81 5.14,13.14 0,5.71 -2.48,10.09 -7.43,13.14l-60.56 35.99c-1.15,0.39 -2.19,0.86 -3.15,1.43 -0.95,0.58 -2.38,0.86 -4.28,0.86 -8.76,0 -13.14,-4 -13.14,-12 0,-4.19 1.71,-7.62 5.14,-10.28zm165.69 221.11c-4.95,0 -9.43,-1.52 -13.43,-4.57 -3.99,-3.04 -5.99,-7.42 -5.99,-13.14l0 -217.12c0,-6.47 2,-11.33 5.99,-14.57 4,-3.23 8.48,-4.85 13.43,-4.85 4.96,0 9.43,1.62 13.43,4.85 4,3.24 6,8.1 6,14.57l0 81.71c6.1,-6.48 14.19,-11.62 24.28,-15.43 10.09,-3.8 19.52,-5.71 28.29,-5.71 19.8,0 36.65,6.85 50.56,20.57 13.9,13.71 20.85,33.9 20.85,60.56l0 75.42c0,5.72 -2.09,10.1 -6.28,13.14 -4.19,3.05 -8.57,4.57 -13.14,4.57 -4.96,0 -9.43,-1.52 -13.43,-4.57 -4,-3.04 -6,-7.42 -6,-13.14l0 -71.99c0,-16.76 -3.71,-29.14 -11.14,-37.14 -7.43,-8 -17.24,-11.99 -29.43,-11.99 -16.38,0 -27.9,5.04 -34.56,15.13 -6.67,10.1 -10,21.24 -10,33.43l0 72.56c0,5.72 -2,10.1 -6,13.14 -4,3.05 -8.47,4.57 -13.43,4.57zm263.4 0c-16.76,0 -31.9,-3.81 -45.43,-11.43 -13.51,-7.61 -24.09,-18.18 -31.7,-31.7 -7.62,-13.53 -11.43,-28.67 -11.43,-45.43 0,-16.38 3.81,-31.04 11.43,-43.99 7.61,-12.95 18.19,-23.14 31.7,-30.57 13.53,-7.43 28.67,-11.14 45.43,-11.14 16.76,0 31.81,3.71 45.13,11.14 13.34,7.43 23.91,17.62 31.71,30.57 7.81,12.95 11.72,27.61 11.72,43.99 0,16.76 -3.91,31.9 -11.72,45.43 -7.8,13.52 -18.37,24.09 -31.71,31.7 -13.32,7.62 -28.37,11.43 -45.13,11.43zm0 -35.42c14.85,0 26.85,-4.86 36,-14.57 9.13,-9.72 13.71,-22.57 13.71,-38.57 0,-15.24 -4.58,-27.42 -13.71,-36.57 -9.15,-9.13 -21.15,-13.7 -36,-13.7 -15.24,0 -27.33,4.57 -36.28,13.7 -8.95,9.15 -13.43,21.33 -13.43,36.57 0,16 4.48,28.85 13.43,38.57 8.95,9.71 21.04,14.57 36.28,14.57zm313.11 35.42c-25.53,0 -46.47,-8.19 -62.85,-24.57 -16.38,-16.38 -24.58,-37.71 -24.58,-63.99 0,-16.76 3.82,-31.61 11.44,-44.56 7.61,-12.95 17.99,-23.05 31.13,-30.29 13.14,-7.23 28.09,-10.85 44.86,-10.85 22.85,0 42.28,5.33 58.27,16 5.34,3.43 8,8.18 8,14.28 0,6.1 -1.91,10.86 -5.71,14.28 -3.81,3.43 -8.2,5.15 -13.14,5.15 -3.43,0 -6.48,-0.77 -9.15,-2.29 -14.09,-9.52 -27.23,-13.71 -39.42,-12.57 -14.86,1.53 -26.47,6.57 -34.85,15.14 -8.38,8.57 -12.57,20.66 -12.57,36.29 0,16.38 4.48,29.22 13.43,38.56 8.94,9.33 21.61,14 37.99,14 14.48,0 28.95,-5.53 43.42,-16.57 3.05,-2.67 7.05,-4 12,-4 5.72,0 10,2.19 12.86,6.57 2.86,4.38 4.28,8.47 4.28,12.29 0,5.33 -2.48,10.28 -7.42,14.85 -9.52,8.38 -20.01,14.19 -31.43,17.43 -11.43,3.23 -23.61,4.85 -36.56,4.85zm-45.71 -259.96c3.8,0 7.04,1.14 9.71,3.42l37.14 27.43 36.56 -27.43c3.05,-2.28 6.29,-3.42 9.72,-3.42 9.14,0 13.71,4 13.71,12 0,3.8 -1.52,7.61 -4.57,11.42l-41.71 37.14c-3.81,3.43 -8.29,5.14 -13.43,5.14 -5.14,0 -9.81,-1.71 -14,-5.14l-41.7 -37.14c-3.05,-3.81 -4.58,-7.42 -4.58,-10.85 0,-8.38 4.38,-12.57 13.15,-12.57zm226.25 259.96c-16.38,0 -31.04,-3.81 -43.99,-11.43 -12.95,-7.61 -23.05,-18.18 -30.28,-31.7 -7.25,-13.53 -10.86,-28.67 -10.86,-45.43 0,-16.38 3.61,-31.04 10.86,-43.99 7.23,-12.95 17.33,-23.14 30.28,-30.57 12.95,-7.43 27.61,-11.14 43.99,-11.14 10.66,0 20.19,1.81 28.57,5.43 8.38,3.62 15.61,8.28 21.71,14 0.76,-5.34 3.05,-9.43 6.85,-12.29 3.82,-2.86 8.01,-4.28 12.58,-4.28 4.95,0 9.42,1.62 13.43,4.85 3.99,3.24 5.99,8.1 5.99,14.57l0 134.27c0,5.72 -2,10.1 -5.99,13.14 -4.01,3.05 -8.48,4.57 -13.43,4.57 -4.96,0 -9.43,-1.52 -13.43,-4.57 -4,-3.04 -6,-7.42 -6,-13.14l0 -2.29c-6.1,6.1 -13.33,10.95 -21.71,14.57 -8.38,3.63 -17.91,5.43 -28.57,5.43zm3.43 -35.42c14.47,0 25.9,-4.86 34.28,-14.57 8.38,-9.72 12.57,-22.57 12.57,-38.57 0,-15.24 -4.19,-27.42 -12.57,-36.57 -8.38,-9.13 -19.81,-13.7 -34.28,-13.7 -14.85,0 -26.85,4.57 -36,13.7 -9.14,9.15 -13.71,21.33 -13.71,36.57 0,16 4.57,28.85 13.71,38.57 9.15,9.71 21.15,14.57 36,14.57zm187.97 35.42c-11.04,0 -22.27,-1.43 -33.71,-4.28 -11.42,-2.86 -21.52,-7.34 -30.28,-13.43 -4.57,-4.19 -6.85,-8.76 -6.85,-13.71 0,-4.96 2,-9.34 6,-13.14 4,-3.82 8.47,-5.72 13.43,-5.72 2.66,0 5.33,0.76 7.99,2.29 6.86,4.19 14.76,7.52 23.72,10 8.95,2.47 17.42,3.71 25.42,3.71 7.62,0 14.19,-1.33 19.71,-4 5.52,-2.67 8.29,-7.05 8.29,-13.14 0,-6.09 -2.67,-10.66 -8,-13.71 -5.34,-3.05 -14.47,-5.33 -27.43,-6.86 -5.33,-0.76 -11.71,-1.71 -19.14,-2.85 -7.42,-1.15 -14.76,-3.24 -21.99,-6.29 -7.24,-3.05 -13.34,-7.62 -18.29,-13.71 -4.95,-6.1 -7.43,-14.29 -7.43,-24.57 0,-16.76 6.19,-30.09 18.57,-39.99 12.38,-9.91 29.05,-14.86 49.99,-14.86 12.2,0 23.72,1.52 34.58,4.57 10.85,3.05 18.95,6.86 24.28,11.43 4.19,3.43 6.28,7.43 6.28,12 0,4.95 -1.71,9.33 -5.14,13.14 -3.43,3.81 -7.62,5.71 -12.57,5.71 -2.67,0 -5.14,-0.57 -7.43,-1.71 -6.09,-3.43 -12.85,-6 -20.28,-7.72 -7.43,-1.71 -14.57,-2.57 -21.43,-2.57 -8,0 -14.76,1.24 -20.28,3.71 -5.52,2.48 -8.29,6.39 -8.29,11.72 0,3.81 1.62,7.14 4.86,9.99 3.24,2.87 11.72,5.24 25.42,7.15 6.48,0.76 13.81,1.9 22,3.43 8.2,1.52 16.1,3.9 23.72,7.14 7.61,3.24 13.9,8.29 18.85,15.14 4.95,6.85 7.43,16.19 7.43,28 0,12.18 -3.43,22.19 -10.29,29.99 -6.85,7.81 -15.71,13.62 -26.57,17.43 -10.85,3.8 -22.56,5.71 -35.14,5.71zm224.55 -155.41c0,-5.33 1.81,-9.8 5.42,-13.42 3.62,-3.62 8.29,-5.43 14,-5.43 5.33,0 9.91,1.81 13.71,5.43 3.82,3.62 5.72,8.09 5.72,13.42l0 80.57c0,17.14 -3.81,31.23 -11.43,42.28 -7.61,11.04 -17.52,19.23 -29.71,24.56 -12.19,5.34 -25.14,8 -38.85,8 -13.71,0 -26.66,-2.66 -38.85,-8 -12.19,-5.33 -22.1,-13.52 -29.72,-24.56 -7.61,-11.05 -11.42,-25.14 -11.42,-42.28l0 -80.57c0,-5.33 1.81,-9.8 5.43,-13.42 3.62,-3.62 8.28,-5.43 14,-5.43 5.33,0 9.9,1.81 13.71,5.43 3.81,3.62 5.71,8.09 5.71,13.42l0 80.57c0,14.09 4.19,24.18 12.57,30.28 8.38,6.09 17.91,9.14 28.57,9.14 11.05,0 20.66,-3.05 28.86,-9.14 8.18,-6.1 12.28,-16.19 12.28,-30.28l0 -80.57z"></path>
   <path class="fil3" d="M1237.92 489.86c-13.14,0 -24.2,-4.15 -33.19,-12.45 -8.98,-8.29 -13.48,-18.66 -13.48,-31.1l0 -347.38c0,-13.14 4.5,-23.85 13.48,-32.14 8.99,-8.3 20.05,-12.45 33.19,-12.45 13.82,0 25.06,4.15 33.7,12.45 8.64,8.29 12.96,19 12.96,32.14l0 99.55c0,13.82 6.91,20.73 20.74,20.73l139.99 0c13.82,0 20.73,-6.91 20.73,-20.73l0 -99.55c0,-13.14 4.33,-23.85 12.97,-32.14 8.64,-8.3 19.87,-12.45 33.7,-12.45 13.82,0 25.06,4.15 33.7,12.45 8.64,8.29 12.96,19 12.96,32.14l0 347.38c0,13.13 -4.32,23.68 -12.96,31.62 -8.64,7.95 -19.88,11.93 -33.7,11.93 -13.14,0 -24.2,-3.98 -33.19,-11.93 -8.99,-7.94 -13.48,-18.49 -13.48,-31.62l0 -121.32c0,-13.83 -6.91,-20.74 -20.73,-20.74l-139.99 0c-13.83,0 -20.74,6.91 -20.74,20.74l0 121.32c0,13.13 -4.32,23.68 -12.96,31.62 -8.64,7.95 -19.88,11.93 -33.7,11.93zm482.17 -10.37c-20.04,0 -36.29,-6.22 -48.74,-18.67 -12.43,-12.45 -18.66,-28.68 -18.66,-48.73l0 -288.27c0,-20.05 5.88,-35.77 17.63,-47.19 11.76,-11.4 27.3,-17.1 46.66,-17.1l156.58 0c29.03,0 43.56,13.83 43.56,41.47 0,11.75 -4.16,21.61 -12.45,29.55 -8.29,7.96 -18.67,11.93 -31.11,11.93l-106.8 0c-13.83,0 -20.74,6.91 -20.74,20.75l0 41.47c0,13.82 6.91,20.74 20.74,20.74l91.25 0c13.82,0 24.53,3.8 32.13,11.41 7.62,7.6 11.42,17.62 11.42,30.06 0,11.07 -4.33,20.75 -12.96,29.04 -8.65,8.3 -18.85,12.44 -30.59,12.44l-91.25 0c-13.83,0 -20.74,6.92 -20.74,20.74l0 45.63c0,13.83 6.91,20.74 20.74,20.74l117.17 0c13.14,0 23.67,3.8 31.63,11.4 7.95,7.6 11.92,17.98 11.92,31.12 0,11.74 -4.14,21.59 -12.44,29.55 -8.29,7.94 -18.66,11.92 -31.11,11.92l-163.84 0zm347.37 0c-20.03,0 -36.28,-6.22 -48.73,-18.67 -12.44,-12.45 -18.67,-28.68 -18.67,-48.73l0 -313.16c0,-13.14 4.5,-23.85 13.48,-32.14 8.99,-8.3 20.41,-12.45 34.23,-12.45 13.14,0 24.02,4.15 32.66,12.45 8.65,8.29 12.96,19 12.96,32.14l0 264.42c0,20.75 10.37,31.1 31.12,31.1l92.28 0c12.44,0 22.64,3.98 30.59,11.94 7.95,7.94 11.93,18.15 11.93,30.58 0,12.45 -3.98,22.64 -11.93,30.6 -7.95,7.94 -18.15,11.92 -30.59,11.92l-149.33 0zm580.7 -27.99c-13.13,10.35 -33.18,19.34 -60.14,26.96 -26.96,7.6 -53.23,11.4 -78.81,11.4 -42.85,0 -81.23,-9.5 -115.1,-28.52 -33.87,-19.01 -60.49,-45.45 -79.85,-79.32 -19.34,-33.87 -29.02,-72.25 -29.02,-115.11 0,-44.93 9.5,-83.65 28.51,-116.13 19.01,-32.49 45.44,-57.55 79.33,-75.18 33.87,-17.64 73.28,-26.45 118.21,-26.45 18.65,0 37.5,1.74 56.52,5.19 19,3.46 36.46,8.99 52.35,16.59 8.3,4.15 14.35,9.52 18.15,16.07 3.81,6.57 5.71,13.66 5.71,21.26 0,11.06 -3.98,21.26 -11.94,30.6 -7.94,9.33 -18.49,14 -31.61,14 -5.54,0 -11.42,-1.05 -17.64,-3.11 -12.43,-4.85 -25.93,-8.83 -40.44,-11.94 -14.51,-3.1 -27.3,-4.67 -38.36,-4.67 -35.95,0 -65.85,12.11 -89.69,36.3 -23.85,24.2 -35.79,56.69 -35.79,97.47 0,43.55 12.28,77.78 36.82,102.66 24.54,24.88 56.16,37.33 94.88,37.33 15.89,0 32.83,-2.77 50.81,-8.29 17.97,-5.53 32.48,-12.45 43.55,-20.75 7.6,-4.83 15.89,-7.24 24.88,-7.24 11.76,0 21.26,3.96 28.52,11.91 7.27,7.96 10.89,17.8 10.89,29.56 0,15.2 -6.91,28.34 -20.74,39.41zm155.54 27.99c-20.04,0 -36.28,-6.22 -48.73,-18.67 -12.44,-12.45 -18.67,-28.68 -18.67,-48.73l0 -288.27c0,-20.05 5.88,-35.77 17.63,-47.19 11.76,-11.4 27.3,-17.1 46.66,-17.1l156.58 0c29.04,0 43.56,13.83 43.56,41.47 0,11.75 -4.15,21.61 -12.45,29.55 -8.29,7.96 -18.66,11.93 -31.11,11.93l-106.8 0c-13.83,0 -20.74,6.91 -20.74,20.75l0 41.47c0,13.82 6.91,20.74 20.74,20.74l91.26 0c13.82,0 24.53,3.8 32.13,11.41 7.61,7.6 11.41,17.62 11.41,30.06 0,11.07 -4.33,20.75 -12.96,29.04 -8.65,8.3 -18.84,12.44 -30.58,12.44l-91.26 0c-13.83,0 -20.74,6.92 -20.74,20.74l0 45.63c0,13.83 6.91,20.74 20.74,20.74l117.17 0c13.14,0 23.68,3.8 31.63,11.4 7.96,7.6 11.92,17.98 11.92,31.12 0,11.74 -4.14,21.59 -12.43,29.55 -8.3,7.94 -18.67,11.92 -31.12,11.92l-163.84 0zm347.38 0c-20.04,0 -36.29,-6.22 -48.74,-18.67 -12.43,-12.45 -18.66,-28.68 -18.66,-48.73l0 -313.16c0,-13.14 4.49,-23.85 13.48,-32.14 8.98,-8.3 20.4,-12.45 34.22,-12.45 13.14,0 24.03,4.15 32.66,12.45 8.65,8.29 12.97,19 12.97,32.14l0 264.42c0,20.75 10.37,31.1 31.11,31.1l92.28 0c12.44,0 22.65,3.98 30.59,11.94 7.95,7.94 11.93,18.15 11.93,30.58 0,12.45 -3.98,22.64 -11.93,30.6 -7.94,7.94 -18.15,11.92 -30.59,11.92l-149.32 0zm326.63 0c-20.04,0 -36.29,-6.22 -48.73,-18.67 -12.44,-12.45 -18.67,-28.68 -18.67,-48.73l0 -288.27c0,-20.05 5.88,-35.77 17.63,-47.19 11.76,-11.4 27.3,-17.1 46.66,-17.1l156.58 0c29.04,0 43.56,13.83 43.56,41.47 0,11.75 -4.15,21.61 -12.45,29.55 -8.29,7.96 -18.66,11.93 -31.11,11.93l-106.8 0c-13.83,0 -20.74,6.91 -20.74,20.75l0 41.47c0,13.82 6.91,20.74 20.74,20.74l91.25 0c13.82,0 24.53,3.8 32.14,11.41 7.61,7.6 11.41,17.62 11.41,30.06 0,11.07 -4.33,20.75 -12.96,29.04 -8.65,8.3 -18.84,12.44 -30.59,12.44l-91.25 0c-13.83,0 -20.74,6.92 -20.74,20.74l0 45.63c0,13.83 6.91,20.74 20.74,20.74l117.17 0c13.14,0 23.67,3.8 31.63,11.4 7.95,7.6 11.92,17.98 11.92,31.12 0,11.74 -4.14,21.59 -12.44,29.55 -8.29,7.94 -18.66,11.92 -31.11,11.92l-163.84 0zm414.78 10.37c-13.13,0 -24.19,-3.98 -33.18,-11.93 -8.99,-7.94 -13.48,-18.49 -13.48,-31.62l0 -270.65c0,-20.74 -10.37,-31.1 -31.1,-31.1l-50.81 0c-12.45,0 -22.65,-3.98 -30.6,-11.93 -7.94,-7.94 -11.92,-18.15 -11.92,-30.59 0,-12.45 3.98,-22.64 11.92,-30.58 7.95,-7.96 18.15,-11.93 30.6,-11.93l256.12 0c13.13,0 23.68,3.97 31.62,11.93 7.95,7.94 11.93,18.13 11.93,30.58 0,12.44 -3.98,22.65 -11.93,30.59 -7.94,7.95 -18.49,11.93 -31.62,11.93l-49.78 0c-20.73,0 -31.1,10.36 -31.1,31.1l0 270.65c0,13.13 -4.33,23.68 -12.97,31.62 -8.64,7.95 -19.87,11.93 -33.7,11.93zm274.8 0c-13.14,0 -24.2,-4.15 -33.19,-12.45 -8.99,-8.29 -13.48,-19 -13.48,-32.14l0 -346.34c0,-13.14 4.49,-23.85 13.48,-32.14 8.99,-8.3 20.05,-12.45 33.19,-12.45 13.82,0 25.06,4.15 33.69,12.45 8.65,8.29 12.97,19 12.97,32.14l0 91.26c0,11.74 3.11,17.62 9.32,17.62 3.47,0 7.27,-2.42 11.42,-7.26l121.32 -129.62c11.05,-11.05 22.81,-16.59 35.26,-16.59 13.12,0 24.54,4.49 34.22,13.48 9.67,8.99 14.51,19.7 14.51,32.15 0,11.06 -4.49,21.08 -13.48,30.07l-123.4 123.39 137.91 157.63c4.85,4.83 7.96,10.01 9.34,15.54 1.39,5.54 2.08,11.06 2.08,16.6 0,12.44 -4.85,23.32 -14.52,32.66 -9.68,9.33 -20.75,14 -33.18,14 -13.14,0 -25.24,-5.54 -36.3,-16.59l-128.57 -157.62 -8.3 8.29c-7.61,7.61 -12.45,14.87 -14.52,21.78 -2.08,6.92 -3.11,15.56 -3.11,25.93l0 73.62c0,13.14 -4.32,23.85 -12.97,32.14 -8.63,8.3 -19.87,12.45 -33.69,12.45zm357.73 0c-11.06,0 -21.59,-4.15 -31.63,-12.45 -10.01,-8.29 -15.02,-19 -15.02,-32.14 0,-5.53 1.03,-11.41 3.1,-17.63l130.65 -341.15c4.85,-12.45 12.8,-21.78 23.85,-28 11.07,-6.23 22.47,-9.34 34.23,-9.34 12.45,0 24.36,3.11 35.77,9.34 11.41,6.22 19.53,15.55 24.37,28l139.98 339.08c1.39,2.77 2.08,5.52 2.08,8.29 0,2.77 0,5.53 0,8.3 0,14.52 -4.83,25.93 -14.51,34.22 -9.68,8.29 -20.41,12.43 -32.15,12.43 -8.29,0 -16.42,-2.24 -24.37,-6.73 -7.95,-4.49 -13.65,-11.58 -17.11,-21.26l-30.07 -80.88c-0.7,-4.15 -3.45,-6.22 -8.3,-6.22l-139.98 0c-4.84,0 -7.95,2.07 -9.33,6.22l-29.04 81.91c-4.84,8.99 -11.06,15.91 -18.66,20.75 -7.61,4.84 -15.56,7.26 -23.86,7.26zm118.22 -197.02l61.18 0c4.14,0 7.43,-1.56 9.84,-4.67 2.43,-3.11 2.95,-7.08 1.56,-11.92l-26.96 -73.63c-4.15,-11.06 -9.34,-16.59 -15.55,-16.59 -6.22,0 -11.41,5.88 -15.56,17.64l-25.92 73.62c-1.38,4.14 -1.04,7.77 1.04,10.88 2.07,3.11 5.53,4.67 10.37,4.67z"></path>
  </g>
 </g>
</svg>
