<?xml version="1.0" encoding="UTF-8"?>
<!-- Creator: CorelDRAW 2019 (64-Bit) -->
<svg xmlns="http://www.w3.org/2000/svg" xmlns:xlink="http://www.w3.org/1999/xlink" xml:space="preserve" width="54.051mm" height="9.65mm" version="1.1" style="shape-rendering:geometricPrecision; text-rendering:geometricPrecision; image-rendering:optimizeQuality; fill-rule:evenodd; clip-rule:evenodd" viewBox="0 0 5405.1 965">
 <defs>
  <style type="text/css">
   <![CDATA[
    .fil1 {fill:#EA2227}
    .fil0 {fill:#2B2A29;fill-rule:nonzero}
    .fil3 {fill:#FCC416;fill-rule:nonzero}
    .fil2 {fill:#EA2227;fill-rule:nonzero}
   ]]>
  </style>
 </defs>
 <g id="Vrstva_x0020_1">
  <metadata id="CorelCorpID_0Corel-Layer"></metadata>
  <g id="_2865478634416">
   <path class="fil0" d="M1494.38 748.17c-15.88,0 -29.55,-5.51 -41.01,-16.54 -11.47,-11.02 -17.2,-24.03 -17.2,-39.02l0 -407.46c0,-25.58 8.16,-46.3 24.47,-62.18 16.32,-15.87 38.15,-23.81 65.49,-23.81l132.29 0c53.8,0 97.23,15.88 130.31,47.63 33.07,31.75 49.61,71.43 49.61,119.06 0,28.22 -7.5,54.68 -22.49,79.37 -15,24.7 -36.6,44.54 -64.83,59.53 12.35,6.18 23.6,14.56 33.74,25.14 10.14,10.58 18.3,23.37 24.47,38.36l43.66 100.54c4.41,10.59 6.61,19.41 6.61,26.46 0,15.88 -6.17,28.89 -18.52,39.03 -12.35,10.14 -26.02,15.21 -41.01,15.21 -9.7,0 -19.18,-2.64 -28.44,-7.94 -9.26,-5.29 -16.54,-13.67 -21.83,-25.13l-50.27 -120.39c-8.82,-21.16 -20.51,-36.38 -35.06,-45.64 -14.55,-9.26 -31.53,-13.89 -50.93,-13.89l-34.39 0c-17.64,0 -26.46,8.82 -26.46,26.46l0 129.65c0,14.99 -5.74,28 -17.2,39.02 -11.47,11.03 -25.14,16.54 -41.01,16.54zm78.05 -310.88l80.7 0c22.05,0 39.46,-6.18 52.25,-18.53 12.79,-12.34 19.19,-28.22 19.19,-47.62 0,-20.28 -6.4,-36.38 -19.19,-48.29 -12.79,-11.9 -30.2,-17.86 -52.25,-17.86l-80.7 0c-13.23,0 -19.84,6.62 -19.84,19.85l0 92.6c0,13.23 6.61,19.85 19.84,19.85zm515.94 310.88c-37.93,0 -72.76,-8.82 -104.51,-26.46 -31.75,-17.64 -57.11,-42.11 -76.07,-73.42 -18.96,-31.31 -28.44,-66.81 -28.44,-106.49 0,-40.57 9.48,-76.07 28.44,-106.5 18.96,-30.43 44.32,-54.24 76.07,-71.44 31.75,-17.19 66.58,-25.79 104.51,-25.79 38.8,0 73.86,8.6 105.17,25.79 31.31,17.2 56.22,41.01 74.74,71.44 18.52,30.43 27.78,65.93 27.78,106.5 0,39.68 -9.26,75.18 -27.78,106.49 -18.52,31.31 -43.43,55.78 -74.74,73.42 -31.31,17.64 -66.37,26.46 -105.17,26.46zm0 -107.16c27.34,0 49.61,-9.48 66.8,-28.44 17.2,-18.96 25.8,-42.55 25.8,-70.77 0,-29.11 -8.6,-52.48 -25.8,-70.12 -17.19,-17.64 -39.46,-26.46 -66.8,-26.46 -26.46,0 -48.73,8.82 -66.81,26.46 -18.08,17.64 -27.12,41.01 -27.12,70.12 0,28.22 9.04,51.81 27.12,70.77 18.08,18.96 40.35,28.44 66.81,28.44zm501.38 107.16c-39.69,0 -73.2,-12.35 -100.54,-37.04 -7.94,24.69 -26.02,37.04 -54.24,37.04 -16.76,0 -30.87,-4.85 -42.34,-14.55 -11.46,-9.7 -17.19,-22.05 -17.19,-37.04l0 -492.13c0,-14.11 5.51,-26.23 16.53,-36.38 11.03,-10.14 25.36,-15.21 43,-15.21 16.75,0 30.42,5.07 41.01,15.21 10.58,10.15 15.87,22.71 15.87,37.71l0 173.3c29.99,-27.34 63.94,-41.01 101.87,-41.01 58.2,0 104.73,18.3 139.56,54.9 34.84,36.6 52.26,86.21 52.26,148.83 0,62.61 -17.64,112.66 -52.92,150.15 -35.28,37.48 -82.9,56.22 -142.87,56.22zm-9.26 -107.16c27.34,0 49.17,-9.48 65.48,-28.44 16.32,-18.96 24.48,-42.55 24.48,-70.77 0,-29.11 -8.16,-52.48 -24.48,-70.12 -16.31,-17.64 -38.14,-26.46 -65.48,-26.46 -26.46,0 -47.85,8.82 -64.16,26.46 -16.32,17.64 -24.48,41.01 -24.48,70.12 0,28.22 8.16,51.81 24.48,70.77 16.31,18.96 37.7,28.44 64.16,28.44zm480.22 107.16c-37.93,0 -72.76,-8.82 -104.51,-26.46 -31.75,-17.64 -57.11,-42.11 -76.07,-73.42 -18.96,-31.31 -28.44,-66.81 -28.44,-106.49 0,-40.57 9.48,-76.07 28.44,-106.5 18.96,-30.43 44.32,-54.24 76.07,-71.44 31.75,-17.19 66.58,-25.79 104.51,-25.79 38.8,0 73.86,8.6 105.17,25.79 31.31,17.2 56.22,41.01 74.74,71.44 18.52,30.43 27.78,65.93 27.78,106.5 0,39.68 -9.26,75.18 -27.78,106.49 -18.52,31.31 -43.43,55.78 -74.74,73.42 -31.31,17.64 -66.37,26.46 -105.17,26.46zm0 -107.16c27.34,0 49.61,-9.48 66.8,-28.44 17.2,-18.96 25.8,-42.55 25.8,-70.77 0,-29.11 -8.6,-52.48 -25.8,-70.12 -17.19,-17.64 -39.46,-26.46 -66.8,-26.46 -26.46,0 -48.73,8.82 -66.81,26.46 -18.08,17.64 -27.12,41.01 -27.12,70.12 0,28.22 9.04,51.81 27.12,70.77 18.08,18.96 40.35,28.44 66.81,28.44zm452.43 107.16c-37.92,0 -69.23,-11.03 -93.93,-33.07 -24.69,-22.05 -37.04,-56.01 -37.04,-101.87l0 -142.87c0,-8.82 -4.41,-13.23 -13.23,-13.23l-19.84 0c-15.88,0 -27.78,-4.85 -35.72,-14.55 -7.94,-9.7 -11.91,-22.05 -11.91,-37.04 0,-15.88 3.97,-28.89 11.91,-39.03 7.94,-10.14 19.84,-15.21 35.72,-15.21l19.84 0c8.82,0 13.23,-4.41 13.23,-13.23l0 -97.9c0,-14.99 5.29,-27.78 15.88,-38.36 10.58,-10.59 24.25,-15.88 41.01,-15.88 16.75,0 30.64,5.07 41.67,15.22 11.02,10.14 16.54,23.15 16.54,39.02l0 97.9c0,8.82 4.4,13.23 13.22,13.23l48.95 0c14.99,0 27.56,5.29 37.7,15.87 10.15,10.58 15.22,23.37 15.22,38.37 0,14.99 -5.07,27.34 -15.22,37.04 -10.14,9.7 -23.15,14.55 -39.02,14.55l-47.63 0c-8.82,0 -13.22,4.41 -13.22,13.23l0 124.35c0,15.88 2.86,26.9 8.59,33.07 5.74,6.18 13.01,9.26 21.83,9.26 3.53,0 10.59,-1.1 21.17,-3.3 10.58,-2.21 17.2,-3.31 19.84,-3.31 14.11,0 26.02,5.29 35.72,15.88 9.7,10.58 14.55,23.37 14.55,38.36 0,11.46 -3.3,22.05 -9.92,31.75 -6.61,9.7 -16.98,16.76 -31.09,21.17 -11.46,3.52 -22.49,6.17 -33.07,7.93 -10.58,1.77 -21.17,2.65 -31.75,2.65zm343.96 0c-59.09,0 -106.94,-18.74 -143.54,-56.22 -36.6,-37.49 -54.9,-87.54 -54.9,-150.15 0,-62.62 17.86,-112.23 53.58,-148.83 35.71,-36.6 82.69,-54.9 140.9,-54.9 41.45,0 77.61,14.55 108.47,43.65 3.53,-10.58 10.15,-19.4 19.85,-26.46 9.7,-7.05 21.16,-10.58 34.39,-10.58 17.64,0 31.97,5.07 43,15.22 11.02,10.14 16.53,22.26 16.53,36.38l0 300.3c0,14.99 -5.51,27.34 -16.53,37.04 -11.03,9.7 -25.36,14.55 -43,14.55 -29.1,0 -47.18,-12.79 -54.24,-38.37 -28.22,25.58 -63.05,38.37 -104.51,38.37zm9.27 -107.16c28.22,0 50.71,-9.48 67.46,-28.44 16.76,-18.96 25.14,-42.55 25.14,-70.77 0,-29.11 -8.38,-52.48 -25.14,-70.12 -16.75,-17.64 -39.24,-26.46 -67.46,-26.46 -27.35,0 -49.61,8.82 -66.81,26.46 -17.21,17.64 -25.81,41.01 -25.81,70.12 0,28.22 8.6,51.81 25.81,70.77 17.2,18.96 39.46,28.44 66.81,28.44zm-88.65 -418.04l112.46 -97.89c13.23,-10.58 26.9,-16.76 41.01,-18.52 14.11,0 26.24,5.07 36.38,15.21 10.14,10.14 15.21,22.71 15.21,37.7 0,19.41 -7.5,33.08 -22.49,41.01l-138.9 78.06c-2.65,0.88 -5.52,2.2 -8.6,3.96 -3.09,1.77 -6.84,2.65 -11.25,2.65 -24.7,0 -37.05,-11.02 -37.05,-33.07 0,-11.47 4.41,-21.17 13.23,-29.11zm456.42 521.23c-16.76,0 -30.87,-4.85 -42.34,-14.55 -11.46,-9.7 -17.19,-22.05 -17.19,-37.04l0 -296.33c0,-14.12 5.51,-26.24 16.53,-36.38 11.03,-10.15 25.36,-15.22 43,-15.22 15.87,0 28.88,4.63 39.02,13.89 10.15,9.26 16.1,20.51 17.86,33.74 9.7,-15 22.93,-27.78 39.69,-38.37 16.76,-10.58 34.4,-15.87 52.92,-15.87 11.46,0 22.49,1.32 33.07,3.97 12.35,3.52 22.49,10.36 30.43,20.5 7.93,10.14 11.9,21.83 11.9,35.06 0,18.52 -5.95,33.73 -17.86,45.64 -11.9,11.9 -25.79,16.09 -41.67,12.57 -11.46,-2.65 -22.93,-3.97 -34.39,-3.97 -20.29,0 -37.05,7.05 -50.28,21.16 -13.22,14.11 -21.16,42.78 -23.81,85.99l0 132.29c0,15 -5.51,27.56 -16.53,37.71 -11.03,10.14 -24.48,15.21 -40.35,15.21zm616.48 3.97c-16.76,0 -30.65,-4.85 -41.67,-14.55 -11.03,-9.7 -16.54,-22.05 -16.54,-37.04l0 -161.4c0,-32.63 -7.28,-56 -21.83,-70.11 -14.55,-14.11 -32.41,-21.17 -53.58,-21.17 -22.05,0 -40.35,7.06 -54.9,21.17 -14.55,14.11 -23.59,30.42 -27.12,48.94l0 177.27c0,15 -5.51,27.56 -16.53,37.71 -11.03,10.14 -24.48,15.21 -40.35,15.21 -16.76,0 -30.87,-4.85 -42.34,-14.55 -11.46,-9.7 -17.19,-22.05 -17.19,-37.04l0 -296.33c0,-14.12 5.51,-26.24 16.53,-36.38 11.03,-10.15 25.36,-15.22 43,-15.22 14.11,0 26.01,3.75 35.72,11.25 9.7,7.49 16.31,16.97 19.84,28.44 23.81,-30.87 59.97,-46.3 108.48,-46.3 49.39,0 89.52,14.55 120.38,43.65 30.87,29.11 46.3,75.41 46.3,138.91l0 178.59c0,14.11 -5.51,25.8 -16.53,35.06 -11.03,9.26 -24.92,13.89 -41.67,13.89zm329.4 0c-59.09,0 -106.93,-18.74 -143.53,-56.22 -36.6,-37.49 -54.9,-87.54 -54.9,-150.15 0,-62.62 17.86,-112.23 53.58,-148.83 35.71,-36.6 82.68,-54.9 140.89,-54.9 41.45,0 77.61,14.55 108.47,43.65 3.53,-10.58 10.15,-19.4 19.85,-26.46 9.7,-7.05 21.16,-10.58 34.39,-10.58 17.64,0 31.97,5.07 43,15.22 11.02,10.14 16.53,22.26 16.53,36.38l0 300.3c0,14.99 -5.51,27.34 -16.53,37.04 -11.03,9.7 -25.36,14.55 -43,14.55 -29.1,0 -47.18,-12.79 -54.24,-38.37 -28.22,25.58 -63.05,38.37 -104.51,38.37zm9.27 -107.16c28.22,0 50.71,-9.48 67.46,-28.44 16.76,-18.96 25.14,-42.55 25.14,-70.77 0,-29.11 -8.38,-52.48 -25.14,-70.12 -16.75,-17.64 -39.24,-26.46 -67.46,-26.46 -27.35,0 -49.61,8.82 -66.81,26.46 -17.2,17.64 -25.8,41.01 -25.8,70.12 0,28.22 8.6,51.81 25.8,70.77 17.2,18.96 39.46,28.44 66.81,28.44z"></path>
   <path class="fil1" d="M242.9 464.86l1.53 1.43c-2.9,37.73 -0.99,209 -0.81,248.91l-0.07 185.93c0.08,21.49 -1.1,41.77 -0.26,62.64l-0.72 1.32c-28.22,-4.35 -41.39,1.77 -88.53,-16.04 -102.08,-38.55 -160.94,-135.68 -160.8,-231.45 0.02,-12.41 2.06,-29.67 4.41,-43.92 16.64,-100.87 101.59,-184.85 201.47,-203.11l43.78 -5.71z"></path>
   <path class="fil2" d="M297.15 593.19l0 231.59 119.86 0c0,-72.04 59.03,-130.44 131.86,-130.44 72.82,0 131.86,58.4 131.86,130.44l119.86 0 0 -231.59 -503.44 0z"></path>
   <path class="fil1" d="M854.03 464.86l-1.53 1.43c2.9,37.73 0.99,209 0.82,248.91l0.06 185.93c-0.08,21.49 1.1,41.77 0.26,62.64l0.72 1.32c28.22,-4.35 41.39,1.77 88.54,-16.04 102.08,-38.55 160.94,-135.68 160.79,-231.45 -0.02,-12.41 -2.06,-29.67 -4.41,-43.92 -16.64,-100.87 -101.58,-184.85 -201.47,-203.11l-43.78 -5.71z"></path>
   <path class="fil1" d="M429.9 574.27l0.67 0.73c17.94,-1.27 99.28,0.13 118.24,0.33l88.32 0.51c10.2,0.1 19.84,-0.41 29.75,0.05l0.63 -0.33c-1.99,-13.42 0.96,-19.66 -7.36,-42.1 -18.02,-48.6 -63.99,-76.84 -109.48,-77.05 -5.89,-0.03 -14.1,0.89 -20.87,1.97 -47.96,7.61 -88.1,47.72 -97.06,95.11l-2.84 20.78z"></path>
   <path class="fil2" d="M101.61 421.15l0 -201.51 104.29 0c0,62.68 51.37,113.5 114.74,113.5 63.37,0 114.73,-50.82 114.73,-113.5l104.3 0 0 201.51 -438.06 0z"></path>
   <path class="fil2" d="M557.45 421.15l0 -201.51 104.29 0c0,62.68 51.37,113.5 114.74,113.5 63.36,0 114.73,-50.82 114.73,-113.5l104.29 0 0 201.51 -438.05 0z"></path>
   <path class="fil2" d="M101.61 0.12l0 201.51 104.29 0c0,-62.68 51.37,-113.49 114.74,-113.49 63.37,0 114.73,50.81 114.73,113.49l104.3 0 0 -201.51 -438.06 0z"></path>
   <path class="fil2" d="M557.45 0.41l0 201.51 104.29 0c0,-62.68 51.37,-113.5 114.74,-113.5 63.36,0 114.73,50.82 114.73,113.5l104.29 0 0 -201.51 -438.05 0z"></path>
   <path class="fil3" d="M224.28 201.79c-0.56,-53.41 42.27,-96.69 95.68,-96.68 53.41,0.02 97.17,43.32 97.75,96.73l-193.43 -0.05z"></path>
   <path class="fil3" d="M680.12 201.79c-0.56,-53.41 42.27,-96.69 95.68,-96.68 53.41,0.02 97.16,43.32 97.75,96.73l-193.43 -0.05z"></path>
  </g>
 </g>
</svg>
